<svg xmlns="http://www.w3.org/2000/svg" xmlns:xlink="http://www.w3.org/1999/xlink" viewBox="0 0 256 256" width="256" height="128"><defs><path d="M174.32 91.26c2.17 1.07 3.26 2.92 3.26 5.54v28.45h-4.33V96.8c-.04-1.04-.65-1.55-1.85-1.55h-1.85v30.05h-4.34V95.25h-1.85c-1.17 0-1.78.51-1.85 1.55v28.45h-4.33V96.8c0-2.62 1.1-4.47 3.31-5.54-.42-.38-.81-.75-1.17-1.09-1.3-1.32-1.95-3.23-1.95-5.76V72.23h4.38v12.18c0 1.77 1.16 3.6 3.46 5.5V72.23h4.34v17.68c2.33-1.9 3.5-3.73 3.5-5.5V72.23h4.33v12.18c0 2.53-.65 4.44-1.94 5.76-.39.38-.77.74-1.12 1.09" id="ascWaIh9W"/><path d="M166.21 13.06h-4.82v48.61h-4.38V13.06h-4.92V8.55h14.12v4.51z" id="azquxAICG"/><path d="M188.3 119.03c.1 1.11.73 1.66 1.9 1.66.19 0 .43-.03.71-.1.27-.07.52-.19.75-.36.16-.21.25-.43.27-.65.01-.23.02-.37.02-.44V78.3c-.03-.35-.12-.62-.27-.83-.14-.21-.31-.35-.51-.44-.19-.09-.38-.14-.56-.16-.18-.01-.31-.02-.41-.02-.1 0-.25.01-.46.02-.21.02-.42.07-.61.16-.2.09-.38.23-.54.44-.16.21-.26.48-.29.83v40.73zm1.9 6.27c-1.1 0-2.05-.2-2.85-.62-.79-.41-1.44-.93-1.92-1.55-.49-.62-.85-1.29-1.07-2-.23-.71-.36-1.37-.39-1.99V78.3c0-.62.11-1.28.34-1.97.22-.69.58-1.35 1.07-1.97.49-.62 1.13-1.13 1.92-1.53.8-.4 1.76-.6 2.9-.6 1.1 0 2.05.2 2.85.6.79.4 1.43.91 1.9 1.53s.81 1.28 1.02 1.97c.21.69.32 1.35.32 1.97v40.84c0 .1-.01.31-.03.62-.01.31-.07.66-.17 1.04s-.25.81-.46 1.29c-.21.49-.51.93-.9 1.35-.36.45-.92.87-1.68 1.27-.76.4-1.71.59-2.85.59" id="a3rOcWnX8M"/><path d="M206.28 68.3h7.11v-4.62h-7.11v4.62zm10.32 3.93v53.07h-4.33V92.34l-5.26 9.38v23.58h-4.34V72.23h4.34V94l5.26-9.33V72.23h4.33z" id="a3YmoE47gq"/><path d="M150.12 56.02c-.02.31-.07.67-.17 1.07-.1.39-.26.82-.49 1.27-.22.45-.53.88-.92 1.29-.36.49-.9.93-1.61 1.32-.71.4-1.69.6-2.92.6-1.1 0-2.04-.21-2.8-.62-.76-.42-1.39-.93-1.87-1.53a6.08 6.08 0 01-1.08-2c-.22-.72-.34-1.4-.34-2.02V14.67c0-.63.11-1.3.32-2.02.21-.73.55-1.39 1.02-2 .47-.6 1.1-1.11 1.88-1.53.78-.41 1.73-.62 2.87-.62 1.14 0 2.09.21 2.87.62.78.42 1.41.93 1.9 1.53.49.61.84 1.27 1.05 2 .21.72.31 1.39.31 2.02v4.25h-4.33v-4.25c0-.42-.07-.73-.22-.94-.14-.2-.31-.36-.51-.46-.19-.11-.4-.17-.61-.18-.21-.02-.36-.03-.46-.03-.65 0-1.06.1-1.22.31-.16.21-.27.36-.34.47-.13.27-.19.46-.19.57-.04.1-.04.19 0 .26V55.3c0 1.1.58 1.66 1.75 1.66.26 0 .53-.03.83-.08.29-.05.52-.16.68-.34.16-.24.25-.47.27-.7.01-.22.02-.37.02-.44v-4.45h4.33v4.45c0 .11 0 .31-.02.62" id="b2t4Rcqlku"/><path d="M141.78 119.66c-.03.41-.1.82-.19 1.24h3.84V76.69h-2.58l-1.02 42.91c-.03.03-.04.05-.05.06zm7.79 1.24h3.17v7.1h-4.19v-2.64h-10.47V128h-4.19v-7.1h2.73c.55-.14.89-.71 1.02-1.71.11-4.4.97-39.6 1.07-44 .07-.83.38-1.52.93-2.07.58-.59 1.26-.88 2.04-.88h7.89v48.66z" id="apCD3xoeg"/><path d="M177.7 39.75c.17-.17.28-.34.34-.52.04-.1.07-.19.1-.26v-24.2c-.03-.41-.13-.73-.29-.93a1.581 1.581 0 00-1.14-.65c-.22-.02-.37-.03-.47-.03h-1.8v27h1.8c.26 0 .53-.02.81-.07.27-.05.49-.17.65-.34m-1.46-31.2c1.14 0 2.11.2 2.92.6.82.39 1.46.9 1.95 1.5.49.61.85 1.26 1.07 1.97.23.71.34 1.37.34 2v24.2c0 .24-.08.78-.24 1.63-.16.85-.6 1.7-1.31 2.57-.36.38-.93.76-1.71 1.16-.78.4-1.78.6-3.02.6h-1.8v16.84h-4.33V8.55h6.13z" id="da6cuZTwA"/><path d="M190.75 55.35c.1 1.11.73 1.66 1.9 1.66.2 0 .43-.04.71-.1.27-.07.53-.19.75-.37.16-.21.25-.42.27-.65.02-.22.02-.37.02-.44V14.61c-.03-.34-.12-.62-.26-.82-.15-.21-.32-.36-.51-.44-.2-.09-.39-.14-.56-.16-.18-.02-.32-.03-.42-.03-.1 0-.25.01-.46.03a1.9 1.9 0 00-.61.16c-.19.08-.37.23-.53.44-.17.2-.27.48-.3.82v40.74zm1.9 6.27c-1.1 0-2.05-.21-2.85-.62-.79-.42-1.43-.93-1.92-1.56-.49-.62-.84-1.28-1.07-1.99-.23-.71-.36-1.37-.39-2V14.61c0-.62.11-1.27.34-1.96.23-.7.58-1.35 1.07-1.97.49-.63 1.13-1.14 1.92-1.53.8-.4 1.77-.6 2.9-.6 1.1 0 2.05.2 2.85.6.8.39 1.43.9 1.9 1.53.47.62.81 1.27 1.02 1.97.21.69.32 1.34.32 1.96v40.84c0 .11-.01.31-.03.63-.01.31-.07.65-.17 1.03-.09.38-.25.81-.46 1.3-.21.48-.51.93-.9 1.35-.36.44-.92.87-1.68 1.26-.76.4-1.71.6-2.85.6" id="a2TlUMAwF"/><path d="M206.24 4.61h7.11V0h-7.11v4.61zm10.32 3.94v53.07h-4.33V28.66l-5.26 9.38v23.58h-4.34V8.55h4.34v21.77l5.26-9.33V8.55h4.33z" id="b3iC75Zuu1"/><path d="M103.71 80.07H92.74V68.39h10.97v11.68zm0 14.86H92.74V83.25h10.97v11.68zm0 14.86H92.74V98.11h10.97v11.68zM89.75 80.07H78.78V68.39h10.97v11.68zm0 14.86H78.78V83.25h10.97v11.68zm0 14.86H78.78V98.11h10.97v11.68zm28.92-39.81L91.24 39.84 54.35 77.71 35.9 97.05H20.44l26.14-27.44-8.92-9.28L8.97 90.68 0 100.23l8.97-4.24v29.19h109.7V75.29l8.97 4.25-8.97-9.56z" id="a24MmCS8Y"/><path d="M8.97 8.42h109.7v45.64l-4.49-5.83v-15.4h-7.98v7.43L91.24 23.81 54.35 62.02 37.47 43.93 8.97 74.76V8.42z" id="a4SUXOjbaS"/></defs><use xlink:href="#apCD3xoeg" fill="#333"/><use xlink:href="#apCD3xoeg" fill-opacity="0" stroke="#000" stroke-opacity="0"/><use xlink:href="#ascWaIh9W" fill="#333"/><use xlink:href="#ascWaIh9W" fill-opacity="0" stroke="#000" stroke-opacity="0"/><use xlink:href="#a3rOcWnX8M" fill="#333"/><use xlink:href="#a3rOcWnX8M" fill-opacity="0" stroke="#000" stroke-opacity="0"/><use xlink:href="#a3YmoE47gq" fill="#333"/><use xlink:href="#a3YmoE47gq" fill-opacity="0" stroke="#000" stroke-opacity="0"/><use xlink:href="#b2t4Rcqlku" fill="#333"/><use xlink:href="#b2t4Rcqlku" fill-opacity="0" stroke="#000" stroke-opacity="0"/><use xlink:href="#azquxAICG" fill="#333"/><use xlink:href="#azquxAICG" fill-opacity="0" stroke="#000" stroke-opacity="0"/><use xlink:href="#da6cuZTwA" fill="#333"/><use xlink:href="#da6cuZTwA" fill-opacity="0" stroke="#000" stroke-opacity="0"/><use xlink:href="#a2TlUMAwF" fill="#333"/><use xlink:href="#a2TlUMAwF" fill-opacity="0" stroke="#000" stroke-opacity="0"/><use xlink:href="#b3iC75Zuu1" fill="#333"/><use xlink:href="#b3iC75Zuu1" fill-opacity="0" stroke="#000" stroke-opacity="0"/><use xlink:href="#a24MmCS8Y" fill="#88b51c"/><use xlink:href="#a24MmCS8Y" fill-opacity="0" stroke="#000" stroke-opacity="0"/><use xlink:href="#a4SUXOjbaS" fill="#cbd60e"/><use xlink:href="#a4SUXOjbaS" fill-opacity="0" stroke="#000" stroke-opacity="0"/></svg>