<?xml version="1.0" encoding="UTF-8" standalone="no"?>
<!DOCTYPE svg PUBLIC "-//W3C//DTD SVG 1.1//EN" "http://www.w3.org/Graphics/SVG/1.1/DTD/svg11.dtd">
<svg version="1.1" xmlns="http://www.w3.org/2000/svg" xmlns:xlink="http://www.w3.org/1999/xlink" preserveAspectRatio="xMidYMid meet" viewBox="0 0 256 256" width="256" height="128"><defs><path d="M141.78 119.66C141.75 120.07 141.68 120.48 141.59 120.9C141.84 120.9 143.13 120.9 145.43 120.9L145.43 76.69L142.85 76.69L141.83 119.6C141.8 119.63 141.79 119.65 141.78 119.66ZM149.57 120.9L152.74 120.9L152.74 128L148.55 128L148.55 125.36L138.08 125.36L138.08 128L133.89 128L133.89 120.9C135.53 120.9 136.44 120.9 136.62 120.9C137.17 120.76 137.51 120.19 137.64 119.19C137.75 114.79 138.61 79.59 138.71 75.19C138.78 74.36 139.09 73.67 139.64 73.12C140.22 72.53 140.9 72.24 141.68 72.24C142.21 72.24 144.84 72.24 149.57 72.24L149.57 120.9Z" id="apCD3xoeg"></path><path d="M174.32 91.26C176.49 92.33 177.58 94.18 177.58 96.8C177.58 98.7 177.58 108.18 177.58 125.25L173.25 125.25C173.25 108.18 173.25 98.7 173.25 96.8C173.21 95.76 172.6 95.25 171.4 95.25C171.27 95.25 170.66 95.25 169.55 95.25L169.55 125.3L165.21 125.3L165.21 95.25C164.1 95.25 163.48 95.25 163.36 95.25C162.19 95.25 161.58 95.76 161.51 96.8C161.51 98.7 161.51 108.18 161.51 125.25L157.18 125.25C157.18 108.18 157.18 98.7 157.18 96.8C157.18 94.18 158.28 92.33 160.49 91.26C160.07 90.88 159.68 90.51 159.32 90.17C158.02 88.85 157.37 86.94 157.37 84.41C157.37 83.6 157.37 79.54 157.37 72.23L161.75 72.23C161.75 79.54 161.75 83.6 161.75 84.41C161.75 86.18 162.91 88.01 165.21 89.91C165.21 88.73 165.21 82.84 165.21 72.23L169.55 72.23C169.55 82.84 169.55 88.73 169.55 89.91C171.88 88.01 173.05 86.18 173.05 84.41C173.05 83.6 173.05 79.54 173.05 72.23L177.38 72.23C177.38 79.54 177.38 83.6 177.38 84.41C177.38 86.94 176.73 88.85 175.44 90.17C175.05 90.55 174.67 90.91 174.32 91.26" id="ascWaIh9W"></path><path d="M188.3 119.03C188.4 120.14 189.03 120.69 190.2 120.69C190.39 120.69 190.63 120.66 190.91 120.59C191.18 120.52 191.43 120.4 191.66 120.23C191.82 120.02 191.91 119.8 191.93 119.58C191.94 119.35 191.95 119.21 191.95 119.14C191.95 115.05 191.95 82.38 191.95 78.3C191.92 77.95 191.83 77.68 191.68 77.47C191.54 77.26 191.37 77.12 191.17 77.03C190.98 76.94 190.79 76.89 190.61 76.87C190.43 76.86 190.3 76.85 190.2 76.85C190.1 76.85 189.95 76.86 189.74 76.87C189.53 76.89 189.32 76.94 189.13 77.03C188.93 77.12 188.75 77.26 188.59 77.47C188.43 77.68 188.33 77.95 188.3 78.3C188.3 86.45 188.3 110.89 188.3 119.03ZM190.2 125.3C189.1 125.3 188.15 125.1 187.35 124.68C186.56 124.27 185.91 123.75 185.43 123.13C184.94 122.51 184.58 121.84 184.36 121.13C184.13 120.42 184 119.76 183.97 119.14C183.97 115.05 183.97 82.38 183.97 78.3C183.97 77.68 184.08 77.02 184.31 76.33C184.53 75.64 184.89 74.98 185.38 74.36C185.87 73.74 186.51 73.23 187.3 72.83C188.1 72.43 189.06 72.23 190.2 72.23C191.3 72.23 192.25 72.43 193.05 72.83C193.84 73.23 194.48 73.74 194.95 74.36C195.42 74.98 195.76 75.64 195.97 76.33C196.18 77.02 196.29 77.68 196.29 78.3C196.29 82.38 196.29 115.05 196.29 119.14C196.29 119.24 196.28 119.45 196.26 119.76C196.25 120.07 196.19 120.42 196.09 120.8C195.99 121.18 195.84 121.61 195.63 122.09C195.42 122.58 195.12 123.02 194.73 123.44C194.37 123.89 193.81 124.31 193.05 124.71C192.29 125.11 191.34 125.3 190.2 125.3" id="a3rOcWnX8M"></path><path d="M206.28 68.3L213.39 68.3L213.39 63.68L206.28 63.68L206.28 68.3ZM216.6 72.23L216.6 125.3L212.27 125.3L212.27 92.34L207.01 101.72L207.01 125.3L202.67 125.3L202.67 72.23L207.01 72.23L207.01 94L212.27 84.67L212.27 72.23L216.6 72.23Z" id="a3YmoE47gq"></path><path d="M150.12 56.02C150.1 56.33 150.05 56.69 149.95 57.09C149.85 57.48 149.69 57.91 149.46 58.36C149.24 58.81 148.93 59.24 148.54 59.65C148.18 60.14 147.64 60.58 146.93 60.97C146.22 61.37 145.24 61.57 144.01 61.57C142.91 61.57 141.97 61.36 141.21 60.95C140.45 60.53 139.82 60.02 139.34 59.42C138.85 58.81 138.49 58.15 138.26 57.42C138.04 56.7 137.92 56.02 137.92 55.4C137.92 51.33 137.92 18.74 137.92 14.67C137.92 14.04 138.03 13.37 138.24 12.65C138.45 11.92 138.79 11.26 139.26 10.65C139.73 10.05 140.36 9.54 141.14 9.12C141.92 8.71 142.87 8.5 144.01 8.5C145.15 8.5 146.1 8.71 146.88 9.12C147.66 9.54 148.29 10.05 148.78 10.65C149.27 11.26 149.62 11.92 149.83 12.65C150.04 13.37 150.14 14.04 150.14 14.67C150.14 14.95 150.14 16.37 150.14 18.92L145.81 18.92C145.81 16.37 145.81 14.95 145.81 14.67C145.81 14.25 145.74 13.94 145.59 13.73C145.45 13.53 145.28 13.37 145.08 13.27C144.89 13.16 144.68 13.1 144.47 13.09C144.26 13.07 144.11 13.06 144.01 13.06C143.36 13.06 142.95 13.16 142.79 13.37C142.63 13.58 142.52 13.73 142.45 13.84C142.32 14.11 142.26 14.3 142.26 14.41C142.22 14.51 142.22 14.6 142.26 14.67C142.26 18.73 142.26 51.24 142.26 55.3C142.26 56.4 142.84 56.96 144.01 56.96C144.27 56.96 144.54 56.93 144.84 56.88C145.13 56.83 145.36 56.72 145.52 56.54C145.68 56.3 145.77 56.07 145.79 55.84C145.8 55.62 145.81 55.47 145.81 55.4C145.81 55.1 145.81 53.62 145.81 50.95L150.14 50.95C150.14 53.62 150.14 55.1 150.14 55.4C150.14 55.51 150.14 55.71 150.12 56.02" id="b2t4Rcqlku"></path><path d="M166.21 13.06L161.39 13.06L161.39 61.67L157.01 61.67L157.01 13.06L152.09 13.06L152.09 8.55L157.01 8.55L161.39 8.55L166.21 8.55L166.21 13.06Z" id="azquxAICG"></path><path d="M177.7 39.75C177.87 39.58 177.98 39.41 178.04 39.23C178.08 39.13 178.11 39.04 178.14 38.97C178.14 38.96 178.14 38.91 178.14 38.82C178.14 24.39 178.14 16.37 178.14 14.77C178.11 14.36 178.01 14.04 177.85 13.84C177.69 13.63 177.51 13.47 177.31 13.37C177.12 13.27 176.92 13.21 176.71 13.19C176.49 13.17 176.34 13.16 176.24 13.16C176.12 13.16 175.52 13.16 174.44 13.16L174.44 40.16C175.52 40.16 176.12 40.16 176.24 40.16C176.5 40.16 176.77 40.14 177.05 40.09C177.32 40.04 177.54 39.92 177.7 39.75M176.24 8.55C177.38 8.55 178.35 8.75 179.16 9.15C179.98 9.54 180.62 10.05 181.11 10.65C181.6 11.26 181.96 11.91 182.18 12.62C182.41 13.33 182.52 13.99 182.52 14.62C182.52 17.04 182.52 36.4 182.52 38.82C182.52 39.06 182.44 39.6 182.28 40.45C182.12 41.3 181.68 42.15 180.97 43.02C180.61 43.4 180.04 43.78 179.26 44.18C178.48 44.58 177.48 44.78 176.24 44.78C176.12 44.78 175.52 44.78 174.44 44.78L174.44 61.62L170.11 61.62L170.11 8.55L174.44 8.55C175.4 8.55 176 8.55 176.24 8.55Z" id="da6cuZTwA"></path><path d="M190.75 55.35C190.85 56.46 191.48 57.01 192.65 57.01C192.85 57.01 193.08 56.97 193.36 56.91C193.63 56.84 193.89 56.72 194.11 56.54C194.27 56.33 194.36 56.12 194.38 55.89C194.4 55.67 194.4 55.52 194.4 55.45C194.4 51.37 194.4 18.7 194.4 14.61C194.37 14.27 194.28 13.99 194.14 13.79C193.99 13.58 193.82 13.43 193.63 13.35C193.43 13.26 193.24 13.21 193.07 13.19C192.89 13.17 192.75 13.16 192.65 13.16C192.55 13.16 192.4 13.17 192.19 13.19C191.98 13.21 191.78 13.26 191.58 13.35C191.39 13.43 191.21 13.58 191.05 13.79C190.88 13.99 190.78 14.27 190.75 14.61C190.75 22.76 190.75 47.2 190.75 55.35ZM192.65 61.62C191.55 61.62 190.6 61.41 189.8 61C189.01 60.58 188.37 60.07 187.88 59.44C187.39 58.82 187.04 58.16 186.81 57.45C186.58 56.74 186.45 56.08 186.42 55.45C186.42 51.37 186.42 18.7 186.42 14.61C186.42 13.99 186.53 13.34 186.76 12.65C186.99 11.95 187.34 11.3 187.83 10.68C188.32 10.05 188.96 9.54 189.75 9.15C190.55 8.75 191.52 8.55 192.65 8.55C193.75 8.55 194.7 8.75 195.5 9.15C196.3 9.54 196.93 10.05 197.4 10.68C197.87 11.3 198.21 11.95 198.42 12.65C198.63 13.34 198.74 13.99 198.74 14.61C198.74 18.7 198.74 51.37 198.74 55.45C198.74 55.56 198.73 55.76 198.71 56.08C198.7 56.39 198.64 56.73 198.54 57.11C198.45 57.49 198.29 57.92 198.08 58.41C197.87 58.89 197.57 59.34 197.18 59.76C196.82 60.2 196.26 60.63 195.5 61.02C194.74 61.42 193.79 61.62 192.65 61.62" id="a2TlUMAwF"></path><path d="M206.24 4.61L213.35 4.61L213.35 0L206.24 0L206.24 4.61ZM216.56 8.55L216.56 61.62L212.23 61.62L212.23 28.66L206.97 38.04L206.97 61.62L202.63 61.62L202.63 8.55L206.97 8.55L206.97 30.32L212.23 20.99L212.23 8.55L216.56 8.55Z" id="b3iC75Zuu1"></path><path d="M103.71 80.07L92.74 80.07L92.74 68.39L103.71 68.39L103.71 80.07ZM103.71 94.93L92.74 94.93L92.74 83.25L103.71 83.25L103.71 94.93ZM103.71 109.79L92.74 109.79L92.74 98.11L103.71 98.11L103.71 109.79ZM89.75 80.07L78.78 80.07L78.78 68.39L89.75 68.39L89.75 80.07ZM89.75 94.93L78.78 94.93L78.78 83.25L89.75 83.25L89.75 94.93ZM89.75 109.79L78.78 109.79L78.78 98.11L89.75 98.11L89.75 109.79ZM118.67 69.98L91.24 39.84L54.35 77.71L35.9 97.05L20.44 97.05L46.58 69.61L37.66 60.33L8.97 90.68L0 100.23L8.97 95.99L8.97 125.18L118.67 125.18L118.67 75.29L127.64 79.54L118.67 69.98Z" id="a24MmCS8Y"></path><path d="M8.97 8.42L118.67 8.42L118.67 54.06L114.18 48.23L114.18 32.83L106.2 32.83L106.2 40.26L91.24 23.81L54.35 62.02L37.47 43.93L8.97 74.76L8.97 8.42Z" id="a4SUXOjbaS"></path></defs><g><g><g><use xlink:href="#apCD3xoeg" opacity="1" fill="#333333" fill-opacity="1"></use><g><use xlink:href="#apCD3xoeg" opacity="1" fill-opacity="0" stroke="#000000" stroke-width="1" stroke-opacity="0"></use></g></g><g><use xlink:href="#ascWaIh9W" opacity="1" fill="#333333" fill-opacity="1"></use><g><use xlink:href="#ascWaIh9W" opacity="1" fill-opacity="0" stroke="#000000" stroke-width="1" stroke-opacity="0"></use></g></g><g><use xlink:href="#a3rOcWnX8M" opacity="1" fill="#333333" fill-opacity="1"></use><g><use xlink:href="#a3rOcWnX8M" opacity="1" fill-opacity="0" stroke="#000000" stroke-width="1" stroke-opacity="0"></use></g></g><g><use xlink:href="#a3YmoE47gq" opacity="1" fill="#333333" fill-opacity="1"></use><g><use xlink:href="#a3YmoE47gq" opacity="1" fill-opacity="0" stroke="#000000" stroke-width="1" stroke-opacity="0"></use></g></g><g><use xlink:href="#b2t4Rcqlku" opacity="1" fill="#333333" fill-opacity="1"></use><g><use xlink:href="#b2t4Rcqlku" opacity="1" fill-opacity="0" stroke="#000000" stroke-width="1" stroke-opacity="0"></use></g></g><g><use xlink:href="#azquxAICG" opacity="1" fill="#333333" fill-opacity="1"></use><g><use xlink:href="#azquxAICG" opacity="1" fill-opacity="0" stroke="#000000" stroke-width="1" stroke-opacity="0"></use></g></g><g><use xlink:href="#da6cuZTwA" opacity="1" fill="#333333" fill-opacity="1"></use><g><use xlink:href="#da6cuZTwA" opacity="1" fill-opacity="0" stroke="#000000" stroke-width="1" stroke-opacity="0"></use></g></g><g><use xlink:href="#a2TlUMAwF" opacity="1" fill="#333333" fill-opacity="1"></use><g><use xlink:href="#a2TlUMAwF" opacity="1" fill-opacity="0" stroke="#000000" stroke-width="1" stroke-opacity="0"></use></g></g><g><use xlink:href="#b3iC75Zuu1" opacity="1" fill="#333333" fill-opacity="1"></use><g><use xlink:href="#b3iC75Zuu1" opacity="1" fill-opacity="0" stroke="#000000" stroke-width="1" stroke-opacity="0"></use></g></g><g><use xlink:href="#a24MmCS8Y" opacity="1" fill="#88b51c" fill-opacity="1"></use><g><use xlink:href="#a24MmCS8Y" opacity="1" fill-opacity="0" stroke="#000000" stroke-width="1" stroke-opacity="0"></use></g></g><g><use xlink:href="#a4SUXOjbaS" opacity="1" fill="#cbd60e" fill-opacity="1"></use><g><use xlink:href="#a4SUXOjbaS" opacity="1" fill-opacity="0" stroke="#000000" stroke-width="1" stroke-opacity="0"></use></g></g></g></g></svg>